<svg xmlns="http://www.w3.org/2000/svg" xmlns:xlink="http://www.w3.org/1999/xlink" width="500" zoomAndPan="magnify" viewBox="0 0 375 374.999991" height="500" preserveAspectRatio="xMidYMid meet" version="1.0"><defs><clipPath id="6fe92e58d7"><path d="M 21.910156 21.910156 L 353.410156 21.910156 L 353.410156 353.410156 L 21.910156 353.410156 Z M 21.910156 21.910156 " clip-rule="nonzero"/></clipPath><clipPath id="2e8123c870"><path d="M 63 63 L 311.957031 63 L 311.957031 311.957031 L 63 311.957031 Z M 63 63 " clip-rule="nonzero"/></clipPath><clipPath id="ff169f253a"><path d="M 109 62.957031 L 127 62.957031 L 127 99 L 109 99 Z M 109 62.957031 " clip-rule="nonzero"/></clipPath></defs><g clip-path="url(#6fe92e58d7)"><path fill="#000000" d="M 187.660156 21.910156 C 96.121094 21.910156 21.910156 96.121094 21.910156 187.660156 C 21.910156 279.203125 96.121094 353.410156 187.660156 353.410156 C 279.203125 353.410156 353.410156 279.203125 353.410156 187.660156 C 353.410156 96.121094 279.203125 21.910156 187.660156 21.910156 " fill-opacity="1" fill-rule="nonzero"/></g><g clip-path="url(#2e8123c870)"><path fill="#ffffff" d="M 308.414062 128.265625 L 292.347656 125.96875 C 289.8125 125.609375 289.09375 123.53125 288.933594 122.910156 C 288.773438 122.28125 288.40625 120.113281 290.453125 118.578125 L 303.4375 108.84375 C 304.316406 108.1875 304.894531 107.210938 305.050781 106.128906 C 305.203125 105.042969 304.921875 103.945312 304.265625 103.066406 L 289.398438 83.246094 C 288.742188 82.367188 287.761719 81.789062 286.679688 81.632812 C 285.574219 81.476562 284.496094 81.761719 283.621094 82.417969 L 270.640625 92.148438 C 268.589844 93.683594 266.609375 92.730469 266.054688 92.398438 C 265.496094 92.066406 263.710938 90.796875 264.074219 88.265625 L 266.371094 72.203125 C 266.695312 69.941406 265.125 67.847656 262.867188 67.527344 L 238.332031 64.027344 C 237.25 63.871094 236.148438 64.15625 235.273438 64.8125 C 234.394531 65.46875 233.816406 66.449219 233.660156 67.53125 L 231.363281 83.59375 C 231.003906 86.128906 228.925781 86.847656 228.304688 87.007812 C 227.671875 87.175781 225.511719 87.539062 223.972656 85.488281 L 214.238281 72.507812 C 213.582031 71.628906 212.601562 71.050781 211.519531 70.890625 C 210.449219 70.734375 209.335938 71.019531 208.460938 71.675781 L 196.046875 80.988281 C 190.363281 80.40625 184.679688 80.386719 179.160156 80.992188 C 142.539062 85.035156 113.445312 114.625 109.980469 151.339844 C 109.871094 152.503906 109.832031 153.664062 109.769531 154.828125 L 108.527344 154.828125 C 106.574219 154.828125 104.886719 156.195312 104.484375 158.113281 L 101.636719 171.679688 L 90.222656 163.820312 C 88.585938 162.683594 86.363281 162.890625 84.960938 164.296875 L 72.574219 176.6875 C 71.164062 178.09375 70.957031 180.308594 72.09375 181.945312 L 79.957031 193.355469 L 66.382812 196.214844 C 64.472656 196.617188 63.105469 198.304688 63.105469 200.257812 L 63.105469 216.773438 C 63.105469 218.726562 64.472656 220.410156 66.382812 220.816406 L 79.957031 223.671875 L 72.09375 235.078125 C 70.960938 236.71875 71.164062 238.9375 72.574219 240.339844 L 84.960938 252.726562 C 86.367188 254.136719 88.585938 254.347656 90.222656 253.207031 L 101.636719 245.339844 L 104.484375 258.914062 C 104.886719 260.828125 106.578125 262.195312 108.527344 262.195312 L 125.042969 262.195312 C 126.996094 262.195312 128.683594 260.828125 129.085938 258.917969 L 131.941406 245.34375 L 143.351562 253.207031 C 144.984375 254.34375 147.203125 254.136719 148.609375 252.726562 L 155.039062 246.300781 L 155.039062 258.066406 C 155.039062 264.152344 158.386719 269.421875 163.300781 272.289062 L 163.300781 295.230469 C 163.300781 304.339844 170.707031 311.75 179.816406 311.75 L 196.332031 311.75 C 205.441406 311.75 212.851562 304.339844 212.851562 295.230469 L 212.851562 272.289062 C 217.765625 269.421875 221.109375 264.152344 221.109375 258.066406 L 221.109375 241.722656 C 221.109375 235.042969 224.683594 228.738281 230.660156 224.867188 C 234.074219 222.652344 237.347656 220.152344 240.382812 217.433594 L 234.871094 211.28125 C 232.15625 213.71875 229.226562 215.957031 226.171875 217.933594 C 217.832031 223.335938 212.851562 232.230469 212.851562 241.722656 L 212.851562 258.066406 C 212.851562 262.621094 209.148438 266.328125 204.59375 266.328125 L 171.558594 266.328125 C 167.003906 266.328125 163.300781 262.621094 163.300781 258.066406 L 163.300781 241.378906 C 163.300781 232.050781 158.402344 223.34375 150.199219 218.074219 C 127.96875 203.800781 115.703125 178.527344 118.199219 152.117188 C 121.300781 119.285156 147.316406 92.824219 180.0625 89.207031 C 182.414062 88.945312 184.792969 88.835938 187.1875 88.816406 C 187.144531 88.976562 187.050781 89.105469 187.03125 89.269531 C 186.878906 90.355469 187.160156 91.453125 187.816406 92.328125 L 197.546875 105.304688 C 199.082031 107.359375 198.128906 109.335938 197.800781 109.890625 C 197.464844 110.445312 196.171875 112.214844 193.660156 111.871094 L 177.597656 109.574219 C 175.339844 109.265625 173.246094 110.824219 172.925781 113.082031 L 169.417969 137.605469 C 169.265625 138.691406 169.546875 139.789062 170.203125 140.664062 C 170.859375 141.546875 171.839844 142.125 172.921875 142.28125 L 188.984375 144.578125 C 191.519531 144.9375 192.242188 147.011719 192.402344 147.636719 C 192.558594 148.257812 192.925781 150.433594 190.878906 151.96875 L 177.898438 161.699219 C 176.074219 163.066406 175.707031 165.65625 177.074219 167.476562 L 191.941406 187.296875 C 193.304688 189.125 195.894531 189.488281 197.71875 188.125 L 210.703125 178.390625 C 212.746094 176.855469 214.722656 177.808594 215.277344 178.140625 C 215.835938 178.46875 217.625 179.746094 217.261719 182.277344 L 214.964844 198.339844 C 214.644531 200.597656 216.210938 202.691406 218.472656 203.015625 L 242.996094 206.519531 C 243.1875 206.550781 243.386719 206.5625 243.582031 206.5625 C 244.46875 206.5625 245.339844 206.277344 246.058594 205.734375 C 246.9375 205.078125 247.515625 204.101562 247.675781 203.019531 L 249.96875 186.957031 C 250.328125 184.421875 252.40625 183.703125 253.03125 183.539062 C 253.65625 183.375 255.816406 183.011719 257.363281 185.058594 L 267.09375 198.039062 C 268.457031 199.863281 271.046875 200.226562 272.871094 198.863281 L 292.691406 184 C 294.515625 182.632812 294.890625 180.042969 293.519531 178.222656 L 283.785156 165.238281 C 282.253906 163.191406 283.207031 161.214844 283.539062 160.660156 C 283.863281 160.097656 285.128906 158.304688 287.671875 158.679688 L 303.734375 160.972656 C 306.011719 161.300781 308.085938 159.726562 308.410156 157.46875 L 311.914062 132.945312 C 312.066406 131.859375 311.785156 130.757812 311.128906 129.882812 C 310.472656 129 309.496094 128.421875 308.414062 128.265625 Z M 116.941406 192.015625 C 120.71875 200.152344 125.878906 207.625 132.269531 214.089844 C 129.945312 220.53125 123.769531 225.03125 116.785156 225.03125 C 107.675781 225.03125 100.269531 217.625 100.269531 208.515625 C 100.269531 199.40625 107.675781 191.996094 116.785156 191.996094 C 116.839844 191.996094 116.890625 192.015625 116.941406 192.015625 Z M 196.332031 303.492188 L 179.816406 303.492188 C 175.261719 303.492188 171.558594 299.785156 171.558594 295.230469 L 171.558594 291.101562 L 204.59375 291.101562 L 204.59375 295.230469 C 204.59375 299.785156 200.886719 303.492188 196.332031 303.492188 Z M 204.59375 274.585938 L 204.59375 282.84375 L 171.558594 282.84375 L 171.558594 274.585938 Z M 154.0625 235.601562 L 145.203125 244.457031 L 136.628906 238.542969 C 134.347656 236.964844 131.449219 236.640625 128.871094 237.671875 C 126.300781 238.699219 124.429688 240.933594 123.859375 243.640625 L 121.695312 253.9375 L 111.878906 253.9375 L 109.71875 243.644531 C 109.148438 240.933594 107.273438 238.703125 104.703125 237.675781 C 102.128906 236.652344 99.234375 236.96875 96.949219 238.546875 L 88.371094 244.460938 L 80.847656 236.9375 L 86.757812 228.363281 C 88.335938 226.085938 88.660156 223.1875 87.636719 220.609375 C 86.609375 218.039062 84.375 216.164062 81.664062 215.59375 L 71.371094 213.429688 L 71.371094 203.613281 L 81.660156 201.449219 C 84.375 200.878906 86.609375 199.003906 87.636719 196.433594 C 88.660156 193.855469 88.335938 190.957031 86.761719 188.683594 L 80.847656 180.105469 L 88.371094 172.582031 L 96.953125 178.496094 C 99.230469 180.066406 102.128906 180.386719 104.699219 179.367188 C 107.273438 178.34375 109.148438 176.109375 109.71875 173.394531 L 110.441406 169.957031 C 111.117188 174.742188 112.199219 179.429688 113.71875 183.957031 C 101.5 185.46875 92.007812 195.894531 92.007812 208.515625 C 92.007812 222.179688 103.121094 233.292969 116.785156 233.292969 C 126.132812 233.292969 134.492188 227.890625 138.679688 219.871094 C 140.929688 221.695312 143.261719 223.4375 145.742188 225.027344 C 149.785156 227.625 152.660156 231.378906 154.0625 235.601562 Z M 300.820312 152.207031 L 288.847656 150.496094 C 283.746094 149.765625 279.039062 152.058594 276.4375 156.449219 C 273.832031 160.84375 274.117188 166.109375 277.1875 170.191406 L 284.441406 179.871094 L 271.230469 189.777344 L 263.972656 180.105469 C 260.910156 176.015625 255.9375 174.253906 250.984375 175.539062 C 246.042969 176.804688 242.515625 180.734375 241.792969 185.78125 L 240.085938 197.753906 L 223.734375 195.421875 L 225.445312 183.449219 C 226.167969 178.390625 223.882812 173.640625 219.492188 171.039062 C 215.101562 168.4375 209.832031 168.714844 205.753906 171.789062 L 196.074219 179.042969 L 186.167969 165.835938 L 195.839844 158.574219 C 199.925781 155.511719 201.675781 150.535156 200.40625 145.589844 C 199.136719 140.640625 195.210938 137.117188 190.160156 136.394531 L 178.1875 134.6875 L 180.523438 118.339844 L 192.492188 120.046875 C 197.566406 120.761719 202.304688 118.488281 204.90625 114.097656 C 207.507812 109.703125 207.222656 104.433594 204.15625 100.351562 L 196.898438 90.675781 L 210.109375 80.765625 L 217.367188 90.441406 C 220.433594 94.523438 225.398438 96.28125 230.355469 95.007812 C 235.296875 93.738281 238.824219 89.8125 239.546875 84.761719 L 241.257812 72.792969 L 257.605469 75.125 L 255.894531 87.097656 C 255.171875 92.148438 257.457031 96.902344 261.847656 99.503906 C 266.234375 102.109375 271.507812 101.820312 275.59375 98.757812 L 285.265625 91.5 L 295.179688 104.710938 L 285.503906 111.972656 C 281.417969 115.035156 279.667969 120.007812 280.9375 124.957031 C 282.203125 129.902344 286.128906 133.425781 291.179688 134.148438 L 303.152344 135.859375 Z M 300.820312 152.207031 " fill-opacity="1" fill-rule="nonzero"/></g><path fill="#ffffff" d="M 240.667969 102.242188 C 222.453125 102.242188 207.632812 117.0625 207.632812 135.277344 C 207.632812 153.492188 222.453125 168.3125 240.667969 168.3125 C 258.882812 168.3125 273.703125 153.492188 273.703125 135.277344 C 273.703125 117.0625 258.882812 102.242188 240.667969 102.242188 Z M 240.667969 160.054688 C 227.003906 160.054688 215.890625 148.941406 215.890625 135.277344 C 215.890625 121.613281 227.003906 110.5 240.667969 110.5 C 254.332031 110.5 265.441406 121.613281 265.441406 135.277344 C 265.441406 148.941406 254.332031 160.054688 240.667969 160.054688 Z M 240.667969 160.054688 " fill-opacity="1" fill-rule="nonzero"/><path fill="#ffffff" d="M 183.945312 245.679688 L 192.203125 245.679688 L 192.203125 258.066406 L 183.945312 258.066406 Z M 183.945312 245.679688 " fill-opacity="1" fill-rule="nonzero"/><path fill="#ffffff" d="M 170.011719 205.125 C 150.882812 197.625 138.523438 179.511719 138.523438 158.964844 C 138.523438 141.851562 147.171875 126.179688 161.664062 117.035156 L 157.253906 110.050781 C 140.351562 120.71875 130.265625 139 130.265625 158.964844 C 130.265625 182.933594 144.683594 204.070312 167 212.808594 C 177.292969 216.847656 183.945312 226.503906 183.945312 237.421875 L 192.203125 237.421875 C 192.203125 223.078125 183.496094 210.402344 170.011719 205.125 Z M 170.011719 205.125 " fill-opacity="1" fill-rule="nonzero"/><path fill="#ffffff" d="M 266.53125 216.773438 L 295.4375 216.773438 L 295.4375 225.03125 L 266.53125 225.03125 Z M 266.53125 216.773438 " fill-opacity="1" fill-rule="nonzero"/><path fill="#ffffff" d="M 259.761719 244.71875 L 265.046875 238.375 L 289.824219 259.019531 L 284.539062 265.363281 Z M 259.761719 244.71875 " fill-opacity="1" fill-rule="nonzero"/><path fill="#ffffff" d="M 241.757812 249.808594 L 250.015625 249.808594 L 250.015625 278.714844 L 241.757812 278.714844 Z M 241.757812 249.808594 " fill-opacity="1" fill-rule="nonzero"/><path fill="#ffffff" d="M 67.320312 134.3125 L 100.355469 126.054688 L 102.355469 134.0625 L 69.320312 142.320312 Z M 67.320312 134.3125 " fill-opacity="1" fill-rule="nonzero"/><path fill="#ffffff" d="M 74.183594 92.125 L 78.980469 85.40625 L 107.886719 106.054688 L 103.085938 112.769531 Z M 74.183594 92.125 " fill-opacity="1" fill-rule="nonzero"/><g clip-path="url(#ff169f253a)"><path fill="#ffffff" d="M 109.558594 65.003906 L 117.5625 62.960938 L 126.007812 95.992188 L 118.007812 98.039062 Z M 109.558594 65.003906 " fill-opacity="1" fill-rule="nonzero"/></g></svg>