<svg xmlns="http://www.w3.org/2000/svg" xmlns:xlink="http://www.w3.org/1999/xlink" width="500" zoomAndPan="magnify" viewBox="0 0 375 374.999991" height="500" preserveAspectRatio="xMidYMid meet" version="1.0"><defs><clipPath id="65f9fba8b3"><path d="M 23.191406 23.191406 L 351.691406 23.191406 L 351.691406 351.691406 L 23.191406 351.691406 Z M 23.191406 23.191406 " clip-rule="nonzero"/></clipPath><clipPath id="5c27e42af3"><path d="M 71.496094 72 L 303.246094 72 L 303.246094 303.246094 L 71.496094 303.246094 Z M 71.496094 72 " clip-rule="nonzero"/></clipPath><clipPath id="d4a80a5822"><path d="M 114 71.496094 L 131 71.496094 L 131 105 L 114 105 Z M 114 71.496094 " clip-rule="nonzero"/></clipPath></defs><rect x="-37.5" width="450" fill="#ffffff" y="-37.499999" height="449.999989" fill-opacity="1"/><rect x="-37.5" width="450" fill="#ffffff" y="-37.499999" height="449.999989" fill-opacity="1"/><rect x="-37.5" width="450" fill="#ffffff" y="-37.499999" height="449.999989" fill-opacity="1"/><g clip-path="url(#65f9fba8b3)"><path fill="#000000" d="M 187.441406 23.191406 C 96.730469 23.191406 23.191406 96.730469 23.191406 187.441406 C 23.191406 278.15625 96.730469 351.691406 187.441406 351.691406 C 278.15625 351.691406 351.691406 278.15625 351.691406 187.441406 C 351.691406 96.730469 278.15625 23.191406 187.441406 23.191406 " fill-opacity="1" fill-rule="nonzero"/></g><g clip-path="url(#5c27e42af3)"><path fill="#ffffff" d="M 299.949219 132.28125 L 285 130.144531 C 282.640625 129.8125 281.972656 127.878906 281.820312 127.296875 C 281.671875 126.714844 281.328125 124.695312 283.234375 123.265625 L 295.320312 114.207031 C 296.136719 113.597656 296.675781 112.6875 296.820312 111.679688 C 296.964844 110.667969 296.703125 109.644531 296.089844 108.832031 L 282.25 90.382812 C 281.640625 89.566406 280.730469 89.027344 279.722656 88.882812 C 278.691406 88.734375 277.691406 89 276.875 89.609375 L 264.796875 98.667969 C 262.886719 100.09375 261.042969 99.210938 260.527344 98.898438 C 260.007812 98.59375 258.347656 97.410156 258.683594 95.054688 L 260.820312 80.101562 C 261.121094 78 259.660156 76.050781 257.558594 75.753906 L 234.726562 72.496094 C 233.71875 72.351562 232.691406 72.617188 231.878906 73.226562 C 231.058594 73.839844 230.519531 74.75 230.375 75.757812 L 228.238281 90.707031 C 227.902344 93.066406 225.972656 93.734375 225.390625 93.886719 C 224.800781 94.039062 222.792969 94.375 221.359375 92.46875 L 212.300781 80.386719 C 211.6875 79.570312 210.777344 79.03125 209.769531 78.882812 C 208.773438 78.738281 207.738281 79.003906 206.921875 79.613281 L 195.371094 88.28125 C 190.078125 87.738281 184.789062 87.71875 179.652344 88.285156 C 145.570312 92.046875 118.488281 119.589844 115.265625 153.757812 C 115.160156 154.84375 115.125 155.921875 115.070312 157.007812 L 113.914062 157.007812 C 112.09375 157.007812 110.523438 158.277344 110.148438 160.0625 L 107.496094 172.691406 L 96.875 165.375 C 95.351562 164.316406 93.285156 164.507812 91.980469 165.820312 L 80.449219 177.347656 C 79.136719 178.660156 78.945312 180.71875 80.003906 182.246094 L 87.320312 192.863281 L 74.6875 195.523438 C 72.910156 195.902344 71.636719 197.46875 71.636719 199.285156 L 71.636719 214.660156 C 71.636719 216.476562 72.910156 218.046875 74.6875 218.421875 L 87.320312 221.078125 L 80.003906 231.699219 C 78.949219 233.222656 79.136719 235.285156 80.449219 236.59375 L 91.980469 248.125 C 93.289062 249.433594 95.351562 249.628906 96.875 248.570312 L 107.496094 241.246094 L 110.148438 253.878906 C 110.523438 255.664062 112.097656 256.9375 113.914062 256.9375 L 129.285156 256.9375 C 131.101562 256.9375 132.671875 255.664062 133.046875 253.882812 L 135.703125 241.25 L 146.324219 248.570312 C 147.84375 249.625 149.910156 249.433594 151.21875 248.125 L 157.203125 242.140625 L 157.203125 253.09375 C 157.203125 258.757812 160.316406 263.660156 164.890625 266.328125 L 164.890625 287.683594 C 164.890625 296.160156 171.785156 303.054688 180.261719 303.054688 L 195.636719 303.054688 C 204.113281 303.054688 211.007812 296.160156 211.007812 287.683594 L 211.007812 266.328125 C 215.582031 263.660156 218.695312 258.757812 218.695312 253.09375 L 218.695312 237.882812 C 218.695312 231.664062 222.019531 225.792969 227.585938 222.191406 C 230.761719 220.132812 233.808594 217.804688 236.632812 215.273438 L 231.503906 209.546875 C 228.976562 211.816406 226.25 213.898438 223.40625 215.738281 C 215.644531 220.765625 211.007812 229.046875 211.007812 237.882812 L 211.007812 253.09375 C 211.007812 257.332031 207.5625 260.78125 203.324219 260.78125 L 172.574219 260.78125 C 168.335938 260.78125 164.890625 257.332031 164.890625 253.09375 L 164.890625 237.5625 C 164.890625 228.878906 160.332031 220.773438 152.699219 215.871094 C 132.007812 202.585938 120.59375 179.0625 122.914062 154.480469 C 125.800781 123.925781 150.015625 99.296875 180.492188 95.929688 C 182.679688 95.6875 184.894531 95.582031 187.121094 95.566406 C 187.085938 95.714844 186.996094 95.835938 186.976562 95.988281 C 186.835938 96.996094 187.097656 98.019531 187.707031 98.835938 L 196.765625 110.914062 C 198.195312 112.824219 197.308594 114.664062 197 115.179688 C 196.6875 115.699219 195.484375 117.34375 193.148438 117.023438 L 178.199219 114.886719 C 176.097656 114.601562 174.148438 116.050781 173.847656 118.152344 L 170.585938 140.976562 C 170.441406 141.988281 170.703125 143.007812 171.316406 143.824219 C 171.925781 144.644531 172.835938 145.179688 173.84375 145.328125 L 188.792969 147.464844 C 191.15625 147.796875 191.828125 149.730469 191.976562 150.3125 C 192.121094 150.890625 192.464844 152.914062 190.558594 154.34375 L 178.480469 163.402344 C 176.78125 164.675781 176.4375 167.085938 177.710938 168.777344 L 191.546875 187.226562 C 192.816406 188.925781 195.226562 189.261719 196.921875 187.996094 L 209.011719 178.9375 C 210.914062 177.507812 212.75 178.394531 213.269531 178.703125 C 213.789062 179.007812 215.453125 180.199219 215.113281 182.554688 L 212.976562 197.503906 C 212.675781 199.605469 214.136719 201.554688 216.238281 201.855469 L 239.066406 205.117188 C 239.246094 205.144531 239.429688 205.15625 239.609375 205.15625 C 240.4375 205.15625 241.246094 204.890625 241.917969 204.386719 C 242.734375 203.777344 243.273438 202.863281 243.417969 201.859375 L 245.554688 186.90625 C 245.890625 184.546875 247.824219 183.878906 248.402344 183.730469 C 248.988281 183.574219 251 183.238281 252.4375 185.144531 L 261.496094 197.222656 C 262.761719 198.921875 265.171875 199.261719 266.871094 197.992188 L 285.320312 184.15625 C 287.015625 182.882812 287.363281 180.472656 286.085938 178.777344 L 277.027344 166.695312 C 275.601562 164.789062 276.492188 162.949219 276.796875 162.433594 C 277.101562 161.910156 278.277344 160.242188 280.644531 160.589844 L 295.59375 162.726562 C 297.71875 163.03125 299.648438 161.566406 299.945312 159.460938 L 303.210938 136.636719 C 303.351562 135.625 303.089844 134.605469 302.480469 133.789062 C 301.867188 132.96875 300.957031 132.429688 299.949219 132.28125 Z M 121.746094 191.617188 C 125.257812 199.191406 130.0625 206.144531 136.011719 212.160156 C 133.847656 218.15625 128.097656 222.347656 121.597656 222.347656 C 113.121094 222.347656 106.226562 215.453125 106.226562 206.972656 C 106.226562 198.496094 113.121094 191.601562 121.597656 191.601562 C 121.648438 191.601562 121.695312 191.617188 121.746094 191.617188 Z M 195.636719 295.367188 L 180.261719 295.367188 C 176.023438 295.367188 172.574219 291.921875 172.574219 287.683594 L 172.574219 283.839844 L 203.324219 283.839844 L 203.324219 287.683594 C 203.324219 291.921875 199.875 295.367188 195.636719 295.367188 Z M 203.324219 268.464844 L 203.324219 276.152344 L 172.574219 276.152344 L 172.574219 268.464844 Z M 156.292969 232.179688 L 148.046875 240.425781 L 140.066406 234.921875 C 137.945312 233.453125 135.246094 233.148438 132.847656 234.109375 C 130.453125 235.066406 128.710938 237.148438 128.183594 239.664062 L 126.167969 249.25 L 117.03125 249.25 L 115.023438 239.667969 C 114.488281 237.148438 112.742188 235.070312 110.351562 234.113281 C 107.957031 233.160156 105.265625 233.457031 103.136719 234.925781 L 95.152344 240.429688 L 88.152344 233.425781 L 93.652344 225.449219 C 95.117188 223.328125 95.421875 220.628906 94.46875 218.230469 C 93.511719 215.835938 91.433594 214.089844 88.910156 213.5625 L 79.332031 211.546875 L 79.332031 202.410156 L 88.90625 200.398438 C 91.433594 199.867188 93.511719 198.121094 94.46875 195.726562 C 95.421875 193.328125 95.117188 190.632812 93.652344 188.515625 L 88.152344 180.53125 L 95.152344 173.527344 L 103.140625 179.03125 C 105.261719 180.496094 107.957031 180.792969 110.347656 179.84375 C 112.742188 178.890625 114.488281 176.8125 115.023438 174.285156 L 115.695312 171.085938 C 116.320312 175.539062 117.328125 179.902344 118.742188 184.117188 C 107.371094 185.523438 98.539062 195.226562 98.539062 206.972656 C 98.539062 219.691406 108.882812 230.03125 121.597656 230.03125 C 130.300781 230.03125 138.078125 225.007812 141.976562 217.542969 C 144.070312 219.242188 146.242188 220.863281 148.546875 222.34375 C 152.308594 224.761719 154.988281 228.253906 156.292969 232.179688 Z M 292.882812 154.566406 L 281.742188 152.976562 C 276.996094 152.296875 272.613281 154.429688 270.191406 158.511719 C 267.765625 162.601562 268.03125 167.507812 270.886719 171.304688 L 277.640625 180.3125 L 265.34375 189.53125 L 258.589844 180.53125 C 255.738281 176.726562 251.109375 175.085938 246.5 176.28125 C 241.902344 177.460938 238.617188 181.117188 237.945312 185.816406 L 236.355469 196.957031 L 221.140625 194.785156 L 222.730469 183.644531 C 223.402344 178.9375 221.277344 174.511719 217.1875 172.09375 C 213.101562 169.671875 208.199219 169.933594 204.402344 172.792969 L 195.394531 179.542969 L 186.171875 167.25 L 195.175781 160.492188 C 198.980469 157.640625 200.609375 153.011719 199.425781 148.40625 C 198.246094 143.800781 194.589844 140.523438 189.890625 139.851562 L 178.75 138.257812 L 180.917969 123.042969 L 192.0625 124.636719 C 196.785156 125.300781 201.191406 123.183594 203.613281 119.097656 C 206.035156 115.007812 205.769531 110.101562 202.914062 106.300781 L 196.164062 97.296875 L 208.457031 88.074219 L 215.214844 97.078125 C 218.066406 100.878906 222.6875 102.511719 227.300781 101.328125 C 231.902344 100.148438 235.183594 96.496094 235.855469 91.792969 L 237.445312 80.652344 L 252.664062 82.824219 L 251.070312 93.964844 C 250.398438 98.667969 252.523438 103.09375 256.609375 105.515625 C 260.695312 107.941406 265.601562 107.671875 269.402344 104.820312 L 278.410156 98.066406 L 287.632812 110.359375 L 278.628906 117.117188 C 274.828125 119.96875 273.195312 124.597656 274.378906 129.203125 C 275.558594 133.804688 279.210938 137.085938 283.914062 137.761719 L 295.054688 139.351562 Z M 292.882812 154.566406 " fill-opacity="1" fill-rule="nonzero"/></g><path fill="#ffffff" d="M 236.898438 108.0625 C 219.945312 108.0625 206.152344 121.855469 206.152344 138.808594 C 206.152344 155.761719 219.945312 169.554688 236.898438 169.554688 C 253.851562 169.554688 267.644531 155.761719 267.644531 138.808594 C 267.644531 121.855469 253.851562 108.0625 236.898438 108.0625 Z M 236.898438 161.867188 C 224.179688 161.867188 213.835938 151.527344 213.835938 138.808594 C 213.835938 126.089844 224.179688 115.75 236.898438 115.75 C 249.613281 115.75 259.957031 126.089844 259.957031 138.808594 C 259.957031 151.527344 249.613281 161.867188 236.898438 161.867188 Z M 236.898438 161.867188 " fill-opacity="1" fill-rule="nonzero"/><path fill="#ffffff" d="M 184.105469 241.5625 L 191.792969 241.5625 L 191.792969 253.09375 L 184.105469 253.09375 Z M 184.105469 241.5625 " fill-opacity="1" fill-rule="nonzero"/><path fill="#ffffff" d="M 171.140625 203.816406 C 153.332031 196.839844 141.828125 179.976562 141.828125 160.855469 C 141.828125 144.925781 149.882812 130.34375 163.367188 121.828125 L 159.261719 115.332031 C 143.53125 125.257812 134.144531 142.277344 134.144531 160.855469 C 134.144531 183.164062 147.5625 202.839844 168.332031 210.96875 C 177.914062 214.730469 184.105469 223.714844 184.105469 233.875 L 191.792969 233.875 C 191.792969 220.527344 183.6875 208.730469 171.140625 203.816406 Z M 171.140625 203.816406 " fill-opacity="1" fill-rule="nonzero"/><path fill="#ffffff" d="M 260.972656 214.660156 L 287.875 214.660156 L 287.875 222.347656 L 260.972656 222.347656 Z M 260.972656 214.660156 " fill-opacity="1" fill-rule="nonzero"/><path fill="#ffffff" d="M 254.667969 240.667969 L 259.589844 234.765625 L 282.648438 253.976562 L 277.730469 259.882812 Z M 254.667969 240.667969 " fill-opacity="1" fill-rule="nonzero"/><path fill="#ffffff" d="M 237.910156 245.40625 L 245.597656 245.40625 L 245.597656 272.308594 L 237.910156 272.308594 Z M 237.910156 245.40625 " fill-opacity="1" fill-rule="nonzero"/><path fill="#ffffff" d="M 75.558594 137.910156 L 106.304688 130.222656 L 108.167969 137.675781 L 77.421875 145.363281 Z M 75.558594 137.910156 " fill-opacity="1" fill-rule="nonzero"/><path fill="#ffffff" d="M 81.945312 98.644531 L 86.414062 92.394531 L 113.316406 111.609375 L 108.847656 117.863281 Z M 81.945312 98.644531 " fill-opacity="1" fill-rule="nonzero"/><g clip-path="url(#d4a80a5822)"><path fill="#ffffff" d="M 114.875 73.40625 L 122.320312 71.5 L 130.183594 102.246094 L 122.734375 104.152344 Z M 114.875 73.40625 " fill-opacity="1" fill-rule="nonzero"/></g></svg>